<svg width="182" height="52" viewBox="0 0 182 52" fill="none" xmlns="http://www.w3.org/2000/svg">
<path d="M7.99773 23.3826L10.7222 22.0738L15.0287 15.7919L16.347 15.2685L17.7532 21.6376L15.9076 21.8993L14.5014 19.2819L13.4467 23.3826H18.1048L22.9386 24.604L24.8721 23.3826L28.1239 26.698L29.5301 20.5906L31.8152 22.8591L33.2214 20.9396L35.5064 20.3289L38.8461 17.2752L39.3735 15.7919L42.098 16.2282L43.2405 17.7114L41.2191 21.8993L46.2287 19.3691V18.1476L48.1622 17.7114L50.2715 19.8054L52.3808 17.2752V15.5302L55.8084 13.1745L57.2145 11.1678H59.4117L63.2788 3.40268L66.6185 0L67.8489 1.91946L65.9154 4.36242L66.6185 5.93289L68.4641 6.28188L69.9582 12.7383V18.1476L72.5948 21.7248L73.9131 26.698L69.343 23.8188L67.3216 15.5302L66.0912 15.7919L65.9154 21.3758L62.5757 26.698L61.6089 34.8121L63.894 35.3356L64.8607 34.2013L67.0579 36.6443L68.7278 43.9732L68.552 48.6846H66.4427L65.6517 42.0537L64.1576 44.0604L60.9058 43.3624L58.2692 41.1812L55.281 42.2282L55.4568 46.9396L53.0839 47.5503L49.5684 50.1678L45.3498 49.6443L43.6799 48.6846L41.0433 49.1208L41.9222 50.1678L39.8129 51.3893L38.143 50.604L34.9791 52L30.1453 49.6443L28.2997 45.4564L26.7177 45.6309L24.8721 44.1477L24.7842 43.0134L18.8957 42.4027L17.929 45.5436L14.2377 43.8859L12.3921 40.8322H8.43717L7.99773 45.7181L5.71267 46.4161L4.57013 50.8658L3.69126 50.0805L0 40.745L4.39436 38.651L3.69126 34.5503L2.98816 30.3624L4.92168 27.6577L4.30647 26L6.94309 23.2081L7.99773 23.3826ZM66.4427 33.6779L70.4855 39.6107L71.8038 39.0872L70.134 36.6443L66.4427 32.8054V33.6779ZM25.1357 21.6376V19.8926L28.2118 17.7114L30.8484 16.4027H27.7723L25.0478 17.9732L23.378 19.4564V21.6376H25.1357Z" fill="white"/>
<path d="M92.5197 41.0004H97.3843V35.8186H100.079C104.165 35.8186 106.903 33.4749 106.903 29.7164C106.903 26.0004 104.235 23.5459 100.254 23.5459H92.5197V41.0004ZM97.3843 32.1368V27.33H99.0991C100.805 27.33 101.829 28.2164 101.829 29.7164C101.829 31.2078 100.805 32.1368 99.0991 32.1368H97.3843Z" fill="white"/>
<path d="M114.944 41.2391C119.318 41.2391 121.908 38.5118 121.908 34.4891C121.908 30.4664 119.318 27.7391 114.944 27.7391C110.569 27.7391 107.98 30.4664 107.98 34.4891C107.98 38.5118 110.569 41.2391 114.944 41.2391ZM114.979 37.7618C113.684 37.7618 112.914 36.509 112.914 34.455C112.914 32.401 113.684 31.1482 114.979 31.1482C116.204 31.1482 116.974 32.401 116.974 34.455C116.974 36.509 116.204 37.7618 114.979 37.7618Z" fill="white"/>
<path d="M130.342 41.2391C134.323 41.2391 136.764 39.0146 136.817 35.5459H132.337C132.232 36.9181 131.471 37.6595 130.412 37.6595C129.144 37.6595 128.313 36.6027 128.313 34.455C128.313 32.3073 129.144 31.2504 130.412 31.2504C131.48 31.2504 132.206 31.9919 132.337 33.3641H136.817C136.791 29.955 134.297 27.7391 130.342 27.7391C125.968 27.7391 123.378 30.4664 123.378 34.4891C123.378 38.5118 125.968 41.2391 130.342 41.2391Z" fill="white"/>
<path d="M145.284 41.2391C149.265 41.2391 151.706 39.0146 151.758 35.5459H147.279C147.174 36.9181 146.412 37.6595 145.354 37.6595C144.085 37.6595 143.254 36.6027 143.254 34.455C143.254 32.3073 144.085 31.2504 145.354 31.2504C146.421 31.2504 147.147 31.9919 147.279 33.3641H151.758C151.732 29.955 149.238 27.7391 145.284 27.7391C140.909 27.7391 138.32 30.4664 138.32 34.4891C138.32 38.5118 140.909 41.2391 145.284 41.2391Z" fill="white"/>
<path d="M158.3 35.0004V27.9095H153.751V41.0004H158.3L162.045 33.8754V41.0004H166.595V27.9095H162.045L158.3 35.0004Z" fill="white"/>
<path d="M176.787 41.0004H181.267V27.9095H174.968C171.092 27.9095 168.642 29.8186 168.668 32.4777C168.651 33.9692 169.569 35.205 171.179 35.9379L168.528 41.0004H172.973L175.239 36.6709H176.787V41.0004ZM176.787 33.8414H175.073C173.787 33.8414 173.192 33.2277 173.218 32.6482C173.192 32.1027 173.752 31.4209 174.968 31.4209H176.787V33.8414Z" fill="white"/>
</svg>
